Coordinates
version=1
nRows=18
nColumns=22
inDegrees=yes

Units are S.I. units (second, meters, Newtons, ...)
If the header above contains a line with 'inDegrees', this indicates whether rotational values are in degrees (yes) or radians (no).

endheader
time	pelvis_tilt	pelvis_list	pelvis_rotation	pelvis_tx	pelvis_ty	pelvis_tz	hip_flexion_r	hip_adduction_r	hip_rotation_r	knee_angle_r	ankle_angle_r	subtalar_angle_r	hip_flexion_l	hip_adduction_l	hip_rotation_l	knee_angle_l	ankle_angle_l	subtalar_angle_l	lumbar_extension	lumbar_bending	lumbar_rotation
      2.80000000	      2.54934114	      3.86220091	    -30.09997956	     -0.26671205	      0.88283665	     -0.02360938	     -5.51252494	     -4.85279580	      2.55371100	    -45.27902647	      3.79998966	     -0.48746860	     22.75240941	      4.01023636	    -11.88922945	    -27.94241601	      7.04261554	     -6.22637712	     -9.39742851	     -6.73137593	      7.36493939
      2.81000000	      2.64970868	      4.03290867	    -30.26618689	     -0.25795306	      0.88417620	     -0.02082048	     -3.81622937	     -5.22043928	      2.76630356	    -48.26682898	      2.93243497	     -0.54284445	     21.84220628	      4.28370718	    -12.36512183	    -27.50484326	      7.43460764	     -5.96035597	     -9.37862023	     -6.91191951	      7.27046762
      2.82000000	      2.77775584	      4.19303506	    -30.44891339	     -0.24938932	      0.88550660	     -0.01806069	     -2.09359135	     -5.62505139	      2.88613075	    -51.12415283	      2.48225225	     -0.69414944	     20.88939824	      4.56259092	    -12.85292026	    -27.02705773	      7.81779697	     -5.66001036	     -9.40822015	     -7.09628052	      7.16441601
      2.83000000	      2.90439902	      4.33096572	    -30.63675673	     -0.24100605	      0.88683331	     -0.01532383	     -0.35818769	     -6.01172520	      2.97580611	    -53.77281496	      2.41150527	     -1.07221608	     19.92330374	      4.82212371	    -13.35511795	    -26.52101708	      8.14095837	     -5.19477860	     -9.45987659	     -7.25093265	      7.00194145
      2.84000000	      3.07664888	      4.44844440	    -30.80302787	     -0.23270256	      0.88822774	     -0.01263736	      1.30566495	     -6.42612717	      2.97681962	    -56.15218555	      2.73235727	     -1.41985850	     18.88207204	      5.12748603	    -13.75717215	    -25.95162237	      8.48682328	     -4.92229649	     -9.57230912	     -7.40344361	      6.78979333
      2.85000000	      3.24397565	      4.50740703	    -30.94082171	     -0.22452097	      0.88967693	     -0.00997979	      2.91206539	     -6.78097691	      2.92915033	    -58.23064640	      3.28199888	     -2.00232394	     17.82472433	      5.39792782	    -14.08511676	    -25.37988066	      8.76722513	     -4.61303925	     -9.71875050	     -7.49167757	      6.54666651
      2.86000000	      3.40750625	      4.47398634	    -31.01619554	     -0.21641004	      0.89121741	     -0.00737254	      4.41081148	     -7.04622588	      2.78924480	    -59.97288758	      3.98627152	     -2.97212244	     16.73002682	      5.62177689	    -14.24933931	    -24.81144316	      9.09474988	     -4.27651973	     -9.91982061	     -7.48090426	      6.29349665
      2.87000000	      3.55341176	      4.40037105	    -31.03410991	     -0.20833990	      0.89279461	     -0.00480999	      5.83527400	     -7.26144327	      2.58138728	    -61.38406792	      4.78664628	     -3.79585598	     15.63065893	      5.82408548	    -14.33506470	    -24.22871849	      9.36521646	     -4.07118468	    -10.12119801	     -7.41151790	      5.98451582
      2.88000000	      3.67700150	      4.27222949	    -30.98792236	     -0.20029785	      0.89441076	     -0.00227483	      7.17152168	     -7.40969767	      2.29527306	    -62.45965634	      5.60565553	     -4.66692010	     14.52253899	      5.98493242	    -14.32867154	    -23.63822097	      9.60439120	     -3.89468080	    -10.32449797	     -7.26960275	      5.64288211
      2.89000000	      3.76737829	      4.07435120	    -30.87761325	     -0.19225557	      0.89604730	      0.00024624	      8.40592453	     -7.47338185	      1.92395519	    -63.19233871	      6.43203597	     -5.58617092	     13.40910519	      6.07281505	    -14.25633809	    -23.05315864	      9.87018918	     -3.73145754	    -10.52150963	     -7.03182352	      5.29421427
      2.90000000	      3.84485155	      3.84494109	    -30.72022121	     -0.18423877	      0.89767760	      0.00275659	      9.55686981	     -7.49541561	      1.50038132	    -63.61971055	      7.23685815	     -6.41648244	     12.28862927	      6.13102027	    -14.11715997	    -22.45916574	     10.09636401	     -3.58202137	    -10.71457223	     -6.75344940	      4.93684004
      2.91000000	      3.90434336	      3.58642091	    -30.53078421	     -0.17621425	      0.89926165	      0.00528133	     10.62432130	     -7.47823932	      1.03454937	    -63.74923520	      8.03111232	     -7.22869668	     11.16867296	      6.14373556	    -13.96705022	    -21.86809720	     10.31813560	     -3.42444637	    -10.88824858	     -6.43066739	      4.59460173
      2.92000000	      3.95347028	      3.32654056	    -30.32732268	     -0.16820519	      0.90074840	      0.00784534	     11.62888618	     -7.45003766	      0.54675305	    -63.61069430	      8.83774760	     -8.03840542	     10.06251961	      6.13057848	    -13.84575820	    -21.28758274	     10.54149242	     -3.24770013	    -11.03561463	     -6.10278296	      4.25805120
      2.93000000	      4.00984285	      3.06475874	    -30.07464809	     -0.16015564	      0.90216564	      0.01036279	     12.53887294	     -7.44349884	     -0.01588826	    -63.20723354	      9.56104768	     -8.59800815	      8.94006687	      6.12744560	    -13.62186963	    -20.68706342	     10.72092645	     -3.08458370	    -11.17989888	     -5.76480678	      3.88242844
      2.94000000	      4.05002245	      2.82117777	    -29.85441642	     -0.15217975	      0.90339510	      0.01296388	     13.41936793	     -7.43815791	     -0.56568139	    -62.57713457	     10.36215087	     -9.44181560	      7.87057767	      6.09236909	    -13.51480756	    -20.13769941	     10.92553183	     -2.85667493	    -11.28297819	     -5.44807235	      3.59120340
      2.95000000	      4.08530306	      2.58967106	    -29.58889250	     -0.14423182	      0.90448457	      0.01550159	     14.23633125	     -7.45699173	     -1.18041627	    -61.72311761	     11.04366325	     -9.93984234	      6.82294822	      6.06937748	    -13.29735916	    -19.59409392	     11.11637342	     -2.68227385	    -11.37629275	     -5.13258423	      3.24210793
      2.96000000	      4.10834210	      2.39290850	    -29.37251498	     -0.13640089	      0.90534278	      0.01814518	     15.03783990	     -7.48384850	     -1.76137303	    -60.67803230	     11.79384169	    -10.67206403	      5.84105515	      6.03421475	    -13.21404279	    -19.11073557	     11.33673190	     -2.46166499	    -11.43126063	     -4.86078743	      2.94614099
      2.97000000	      4.11986087	      2.21401672	    -29.13394661	     -0.12864555	      0.90601411	      0.02076390	     15.79353088	     -7.52491477	     -2.38101264	    -59.43933209	     12.44884082	    -11.16010135	      4.90136997	      6.00641703	    -13.06605490	    -18.65125774	     11.58198401	     -2.30125973	    -11.47253173	     -4.60073713	      2.62659906
